<svg xmlns="http://www.w3.org/2000/svg" viewBox="0 0 600 342" width="600" height="342" role="img" aria-labelledby="t"><title id="t">Contribution calendar for the past 12 weeks: 424 public contributions on 68 days, longest streak 52 days, busiest day 30.</title><defs><path id="s7A" d="M18 0 202 700H432L616 0H480L442 154H192L154 0ZM223 276H411L326 617H308Z"/><path id="s7c" d="M303 -14Q231 -14 172 16Q114 46 80 103Q46 160 46 241V255Q46 336 80 393Q114 450 172 480Q231 510 303 510Q374 510 425 485Q476 460 508 416Q539 373 549 318L427 292Q423 322 409 346Q395 370 370 384Q344 398 306 398Q268 398 238 382Q207 365 190 332Q172 300 172 253V243Q172 196 190 164Q207 131 238 114Q268 98 306 98Q363 98 392 128Q422 157 430 205L552 176Q539 123 508 80Q476 36 425 11Q374 -14 303 -14Z"/><path id="s7t" d="M260 0Q211 0 180 30Q150 61 150 112V392H26V496H150V650H276V496H412V392H276V134Q276 104 304 104H400V0Z"/><path id="s7i" d="M70 0V496H196V0ZM133 554Q99 554 76 576Q52 598 52 634Q52 670 76 692Q99 714 133 714Q168 714 191 692Q214 670 214 634Q214 598 191 576Q168 554 133 554Z"/><path id="s7v" d="M174 0 16 496H150L265 92H283L398 496H532L374 0Z"/><path id="s7y" d="M124 -200V-90H394Q422 -90 422 -60V65H404Q396 48 379 31Q362 14 333 3Q304 -8 259 -8Q201 -8 158 18Q114 45 90 92Q66 139 66 200V496H192V210Q192 154 220 126Q247 98 298 98Q356 98 388 136Q420 175 420 244V496H546V-88Q546 -139 516 -170Q486 -200 436 -200Z"/><path id="s7comma" d="M79 -147V-79H118Q164 -79 164 -33V-1H147Q107 -1 80 23Q54 47 54 84Q54 124 80 149Q107 174 147 174Q188 174 214 148Q240 123 240 80V-35Q240 -147 128 -147Z"/><path id="s7space" d=""/><path id="s7p" d="M70 -200V496H194V436H212Q229 465 265 488Q301 510 368 510Q428 510 479 480Q530 451 561 394Q592 337 592 256V240Q592 159 561 102Q530 45 479 16Q428 -14 368 -14Q323 -14 292 -4Q262 7 244 24Q225 40 214 57H196V-200ZM330 96Q389 96 428 134Q466 171 466 243V253Q466 325 427 362Q388 400 330 400Q272 400 233 362Q194 325 194 253V243Q194 171 233 134Q272 96 330 96Z"/><path id="s7a" d="M224 -14Q171 -14 129 4Q87 23 62 58Q38 94 38 145Q38 196 62 230Q87 265 130 282Q174 300 230 300H366V328Q366 363 344 386Q322 408 274 408Q227 408 204 386Q181 365 174 331L58 370Q70 408 96 440Q123 471 168 490Q212 510 276 510Q374 510 431 461Q488 412 488 319V134Q488 104 516 104H556V0H472Q435 0 411 18Q387 36 387 66V67H368Q364 55 350 36Q336 16 306 1Q276 -14 224 -14ZM246 88Q299 88 332 118Q366 147 366 196V206H239Q204 206 184 191Q164 176 164 149Q164 122 185 105Q206 88 246 88Z"/><path id="s7s" d="M276 -14Q179 -14 117 28Q55 70 42 148L158 178Q165 143 182 123Q198 103 222 94Q247 86 276 86Q320 86 341 102Q362 117 362 140Q362 163 342 176Q322 188 278 196L250 201Q198 211 155 228Q112 246 86 277Q60 308 60 357Q60 431 114 470Q168 510 256 510Q339 510 394 473Q449 436 466 376L349 340Q341 378 316 394Q292 410 256 410Q220 410 201 398Q182 385 182 363Q182 339 202 328Q222 316 256 310L284 305Q340 295 386 278Q431 262 458 232Q484 201 484 149Q484 71 428 28Q371 -14 276 -14Z"/><path id="s7one" d="M258 0V606H240L146 384H12L155 700H386V0Z"/><path id="s7two" d="M42 0V84Q42 157 66 206Q90 254 136 286Q181 317 247 337L314 358Q351 370 376 388Q401 405 414 430Q428 455 428 487V491Q428 541 394 570Q360 600 301 600Q243 600 208 568Q172 537 172 478V460H44V476Q44 552 78 605Q112 658 170 686Q229 714 301 714Q373 714 431 686Q489 659 522 610Q556 560 556 493V483Q556 416 528 370Q501 323 454 294Q407 264 347 245L283 225Q240 212 216 196Q192 181 182 162Q173 144 173 118V114H550V0Z"/><path id="s7w" d="M110 0 40 496H165L209 85H227L291 496H493L557 85H575L619 496H744L674 0H465L401 411H383L319 0Z"/><path id="s7e" d="M296 -14Q222 -14 166 18Q109 49 78 106Q46 164 46 242V254Q46 332 77 390Q108 447 164 478Q220 510 294 510Q367 510 421 478Q475 445 505 388Q535 330 535 254V211H174Q176 160 212 128Q248 96 300 96Q353 96 378 119Q403 142 416 170L519 116Q505 90 478 60Q452 29 408 8Q364 -14 296 -14ZM175 305H407Q403 348 372 374Q342 400 293 400Q242 400 212 374Q182 348 175 305Z"/><path id="s7k" d="M70 0V700H196V313H214L378 496H542L313 256L550 0H388L214 197H196V0Z"/><path id="m7four" d="M390 0V145H65V326L346 730H486L185 293V255H390V420H515V0Z"/><path id="m7two" d="M79 0V121L307 350Q355 399 378 438Q401 478 401 520Q401 571 373 600Q345 628 297 628Q244 628 214 598Q184 567 184 513H59Q60 583 90 634Q119 684 173 712Q227 740 299 740Q368 740 419 714Q470 688 498 641Q526 594 526 529Q526 462 492 398Q457 335 381 262L229 113H535V0Z"/><path id="m5c" d="M304 -10Q236 -10 184 16Q133 41 106 90Q78 138 78 203V347Q78 413 106 461Q133 509 184 534Q236 560 304 560Q403 560 463 508Q523 456 526 366H418Q415 413 385 439Q355 465 304 465Q249 465 217 434Q185 404 185 348V203Q185 147 217 116Q249 85 304 85Q355 85 385 111Q415 137 418 184H526Q523 94 463 42Q403 -10 304 -10Z"/><path id="m5o" d="M300 -9Q232 -9 182 17Q132 43 105 91Q78 139 78 204V346Q78 412 105 460Q132 507 182 533Q232 559 300 559Q368 559 418 533Q468 507 495 460Q522 412 522 346V204Q522 139 495 91Q468 43 418 17Q368 -9 300 -9ZM300 86Q355 86 385 116Q415 147 415 204V346Q415 404 385 434Q355 464 300 464Q246 464 216 434Q185 404 185 346V204Q185 147 216 116Q246 86 300 86Z"/><path id="m5n" d="M84 0V550H191V445H217L191 420Q191 486 230 523Q269 560 338 560Q420 560 469 508Q518 455 518 366V0H410V354Q410 408 381 437Q352 466 302 466Q251 466 222 436Q192 405 192 347V0Z"/><path id="m5t" d="M360 0Q285 0 243 41Q201 82 201 155V452H49V550H201V705H309V550H524V452H309V155Q309 98 364 98H514V0Z"/><path id="m5r" d="M102 0V550H206V445H232L199 380Q199 469 238 514Q277 560 354 560Q442 560 494 506Q545 451 545 356V319H434V347Q434 406 404 438Q375 469 322 469Q269 469 240 437Q210 405 210 347V0Z"/><path id="m5i" d="M81 0V98H274V452H106V550H379V98H556V0ZM316 645Q281 645 260 664Q239 682 239 713Q239 745 260 764Q281 782 316 782Q351 782 372 764Q393 745 393 713Q393 682 372 664Q351 645 316 645Z"/><path id="m5b" d="M339 -10Q271 -10 231 28Q191 65 191 130L214 105H191V0H84V730H192V573L189 445H214L191 420Q191 485 232 522Q272 560 339 560Q422 560 472 504Q522 448 522 352V197Q522 102 472 46Q422 -10 339 -10ZM302 84Q355 84 385 114Q415 145 415 203V347Q415 405 385 436Q355 466 302 466Q251 466 222 434Q192 403 192 347V203Q192 147 222 116Q251 84 302 84Z"/><path id="m5u" d="M299 -10Q200 -10 141 48Q82 105 82 204V550H190V204Q190 147 219 116Q248 84 299 84Q351 84 380 116Q410 147 410 204V550H518V204Q518 105 458 48Q399 -10 299 -10Z"/><path id="m5s" d="M281 -9Q222 -9 178 10Q133 29 108 62Q82 96 78 142H186Q190 115 215 98Q240 82 281 82H324Q373 82 398 102Q423 122 423 155Q423 187 400 206Q378 224 334 230L263 241Q175 255 134 292Q92 328 92 400Q92 476 142 518Q191 559 288 559H326Q412 559 464 520Q515 480 522 414H414Q410 438 388 453Q365 468 326 468H288Q241 468 220 450Q198 433 198 399Q198 369 217 354Q236 339 276 333L349 321Q442 308 486 270Q529 231 529 158Q529 79 478 35Q426 -9 324 -9Z"/><path id="m7six" d="M300 -10Q227 -10 172 20Q116 51 86 106Q55 162 55 235Q55 287 72 344Q90 401 121 451L293 730H432L216 390L222 386Q242 417 276 433Q310 449 352 449Q411 449 454 421Q497 393 521 343Q545 293 545 226Q545 155 514 102Q484 49 430 20Q375 -10 300 -10ZM300 96Q355 96 389 132Q423 167 423 224Q423 283 389 318Q355 354 300 354Q245 354 211 318Q177 283 177 224Q177 167 211 132Q245 96 300 96Z"/><path id="m7eight" d="M300 -10Q228 -10 175 14Q122 39 93 84Q64 129 64 189Q64 255 101 302Q138 349 211 382L323 433Q359 450 380 479Q400 508 400 544Q400 585 373 610Q346 634 300 634Q254 634 226 609Q199 584 199 543Q199 508 220 479Q241 450 276 434L387 383Q466 348 501 300Q536 253 536 189Q536 97 472 44Q409 -10 300 -10ZM300 97Q352 97 382 124Q413 152 413 197Q413 232 392 264Q371 295 334 312L215 367Q147 399 112 444Q76 488 76 550Q76 606 103 649Q130 692 180 716Q231 740 300 740Q369 740 418 716Q468 692 496 649Q523 606 523 550Q523 487 488 443Q453 399 385 367L265 311Q229 295 208 264Q187 233 187 198Q187 153 218 125Q248 97 300 97Z"/><path id="m5a" d="M245 -10Q159 -10 110 34Q60 79 60 156Q60 234 112 278Q165 323 257 323H410V374Q410 419 382 444Q354 469 303 469Q258 469 228 450Q198 430 193 398H87Q96 472 156 516Q215 560 306 560Q404 560 461 510Q518 461 518 376V0H413V101H395L413 121Q413 61 367 26Q321 -10 245 -10ZM277 73Q335 73 372 102Q410 132 410 178V250H259Q217 250 192 227Q168 204 168 164Q168 122 197 98Q226 73 277 73Z"/><path id="m5v" d="M229 0 47 550H157L270 198Q281 167 290 136Q298 104 302 86Q307 104 316 136Q324 167 333 198L444 550H553L371 0Z"/><path id="m5e" d="M300 -10Q233 -10 182 16Q132 43 105 91Q78 139 78 203V347Q78 412 105 460Q132 507 182 534Q233 560 300 560Q368 560 418 534Q468 507 495 460Q522 412 522 347V249H182V203Q182 142 212 110Q243 78 301 78Q348 78 377 94Q406 111 413 143H520Q508 73 448 32Q388 -10 300 -10ZM418 314V348Q418 408 388 441Q358 474 300 474Q243 474 212 441Q182 408 182 347V322L426 323Z"/><path id="m5space" d=""/><path id="m5d" d="M261 -10Q178 -10 128 46Q78 102 78 197V352Q78 448 128 504Q178 560 261 560Q329 560 369 522Q409 485 409 420L386 445H411L408 573V730H516V0H409V105H386L409 130Q409 65 369 28Q329 -10 261 -10ZM298 84Q349 84 378 116Q408 147 408 203V347Q408 403 378 434Q349 466 298 466Q245 466 215 436Q185 405 185 347V203Q185 145 215 114Q245 84 298 84Z"/><path id="m5y" d="M172 -180 251 32 46 550H165L280 240Q287 220 294 192Q301 164 306 146Q310 164 317 192Q324 220 331 240L439 550H554L286 -180Z"/><path id="m7five" d="M299 -10Q198 -10 137 40Q76 91 70 178H195Q199 140 226 120Q252 99 299 99Q351 99 378 126Q405 154 405 203V274Q405 324 378 350Q351 377 299 377Q267 377 244 364Q221 351 209 328H87L92 730H503V617H210L208 405H237L207 380Q207 426 244 452Q280 479 342 479Q431 480 480 426Q530 371 530 274V203Q530 104 468 47Q407 -10 299 -10Z"/><path id="m5k" d="M87 0V730H195V329H292L438 550H560L385 286L563 0H439L292 236H195V0Z"/><path id="m7three" d="M293 -10Q222 -10 170 16Q117 42 88 89Q59 136 59 200H185Q185 151 214 124Q242 96 294 96Q346 96 374 124Q402 152 402 200V257Q402 306 374 334Q346 361 294 361H212V474L373 623H92V730H500V617L294 428V468Q402 468 465 411Q528 354 528 257V200Q528 136 499 89Q470 42 417 16Q364 -10 293 -10Z"/><path id="m7zero" d="M300 -10Q229 -10 177 17Q125 44 96 93Q68 142 68 208V522Q68 588 96 637Q125 686 177 713Q229 740 300 740Q372 740 424 713Q475 686 504 637Q532 588 532 522V208Q532 142 504 93Q475 44 423 17Q371 -10 300 -10ZM300 98Q352 98 383 128Q414 158 414 208V522Q414 572 383 602Q352 632 300 632Q248 632 217 602Q186 572 186 522V208Q186 158 217 128Q248 98 300 98ZM300 300Q271 300 252 319Q234 338 234 368Q234 398 252 416Q270 434 300 434Q330 434 348 416Q366 398 366 368Q366 338 348 319Q330 300 300 300Z"/></defs><rect x="1" y="1" width="598" height="340" rx="20" fill="#12161C" stroke="#303741" stroke-width="2"/><g transform="translate(30.0 50) scale(0.02200 -0.02200)" fill="#ECE8E0"><use href="#s7A" x="0"/><use href="#s7c" x="634"/><use href="#s7t" x="1220"/><use href="#s7i" x="1676"/><use href="#s7v" x="1942"/><use href="#s7i" x="2490"/><use href="#s7t" x="2756"/><use href="#s7y" x="3212"/><use href="#s7comma" x="3828"/><use href="#s7p" x="4376"/><use href="#s7a" x="5014"/><use href="#s7s" x="5592"/><use href="#s7t" x="6116"/><use href="#s7one" x="6826"/><use href="#s7two" x="7278"/><use href="#s7w" x="8126"/><use href="#s7e" x="8910"/><use href="#s7e" x="9487"/><use href="#s7k" x="10064"/><use href="#s7s" x="10628"/></g><rect x="156.0" y="78.0" width="21.0" height="21.0" rx="3" fill="#222932" fill-opacity="1"/><rect x="156.0" y="102.0" width="21.0" height="21.0" rx="3" fill="#222932" fill-opacity="1"/><rect x="156.0" y="126.0" width="21.0" height="21.0" rx="3" fill="#222932" fill-opacity="1"/><rect x="156.0" y="150.0" width="21.0" height="21.0" rx="3" fill="#222932" fill-opacity="1"/><rect x="156.0" y="174.0" width="21.0" height="21.0" rx="3" fill="#FF7A1A" fill-opacity="1.0"/><rect x="156.0" y="198.0" width="21.0" height="21.0" rx="3" fill="#222932" fill-opacity="1"/><rect x="156.0" y="222.0" width="21.0" height="21.0" rx="3" fill="#222932" fill-opacity="1"/><rect x="180.0" y="78.0" width="21.0" height="21.0" rx="3" fill="#FF7A1A" fill-opacity="0.78"/><rect x="180.0" y="102.0" width="21.0" height="21.0" rx="3" fill="#222932" fill-opacity="1"/><rect x="180.0" y="126.0" width="21.0" height="21.0" rx="3" fill="#222932" fill-opacity="1"/><rect x="180.0" y="150.0" width="21.0" height="21.0" rx="3" fill="#222932" fill-opacity="1"/><rect x="180.0" y="174.0" width="21.0" height="21.0" rx="3" fill="#222932" fill-opacity="1"/><rect x="180.0" y="198.0" width="21.0" height="21.0" rx="3" fill="#222932" fill-opacity="1"/><rect x="180.0" y="222.0" width="21.0" height="21.0" rx="3" fill="#FF7A1A" fill-opacity="1.0"/><rect x="204.0" y="78.0" width="21.0" height="21.0" rx="3" fill="#FF7A1A" fill-opacity="1.0"/><rect x="204.0" y="102.0" width="21.0" height="21.0" rx="3" fill="#FF7A1A" fill-opacity="0.78"/><rect x="204.0" y="126.0" width="21.0" height="21.0" rx="3" fill="#FF7A1A" fill-opacity="0.55"/><rect x="204.0" y="150.0" width="21.0" height="21.0" rx="3" fill="#FF7A1A" fill-opacity="1.0"/><rect x="204.0" y="174.0" width="21.0" height="21.0" rx="3" fill="#FF7A1A" fill-opacity="0.55"/><rect x="204.0" y="198.0" width="21.0" height="21.0" rx="3" fill="#FF7A1A" fill-opacity="1.0"/><rect x="204.0" y="222.0" width="21.0" height="21.0" rx="3" fill="#FF7A1A" fill-opacity="0.55"/><rect x="228.0" y="78.0" width="21.0" height="21.0" rx="3" fill="#FF7A1A" fill-opacity="1.0"/><rect x="228.0" y="102.0" width="21.0" height="21.0" rx="3" fill="#222932" fill-opacity="1"/><rect x="228.0" y="126.0" width="21.0" height="21.0" rx="3" fill="#FF7A1A" fill-opacity="0.78"/><rect x="228.0" y="150.0" width="21.0" height="21.0" rx="3" fill="#222932" fill-opacity="1"/><rect x="228.0" y="174.0" width="21.0" height="21.0" rx="3" fill="#FF7A1A" fill-opacity="0.55"/><rect x="228.0" y="198.0" width="21.0" height="21.0" rx="3" fill="#FF7A1A" fill-opacity="0.78"/><rect x="228.0" y="222.0" width="21.0" height="21.0" rx="3" fill="#FF7A1A" fill-opacity="1.0"/><rect x="252.0" y="78.0" width="21.0" height="21.0" rx="3" fill="#FF7A1A" fill-opacity="1.0"/><rect x="252.0" y="102.0" width="21.0" height="21.0" rx="3" fill="#FF7A1A" fill-opacity="1.0"/><rect x="252.0" y="126.0" width="21.0" height="21.0" rx="3" fill="#FF7A1A" fill-opacity="1.0"/><rect x="252.0" y="150.0" width="21.0" height="21.0" rx="3" fill="#FF7A1A" fill-opacity="1.0"/><rect x="252.0" y="174.0" width="21.0" height="21.0" rx="3" fill="#FF7A1A" fill-opacity="0.55"/><rect x="252.0" y="198.0" width="21.0" height="21.0" rx="3" fill="#FF7A1A" fill-opacity="0.78"/><rect x="252.0" y="222.0" width="21.0" height="21.0" rx="3" fill="#FF7A1A" fill-opacity="0.78"/><rect x="276.0" y="78.0" width="21.0" height="21.0" rx="3" fill="#FF7A1A" fill-opacity="0.78"/><rect x="276.0" y="102.0" width="21.0" height="21.0" rx="3" fill="#FF7A1A" fill-opacity="0.55"/><rect x="276.0" y="126.0" width="21.0" height="21.0" rx="3" fill="#FF7A1A" fill-opacity="0.55"/><rect x="276.0" y="150.0" width="21.0" height="21.0" rx="3" fill="#FF7A1A" fill-opacity="0.55"/><rect x="276.0" y="174.0" width="21.0" height="21.0" rx="3" fill="#FF7A1A" fill-opacity="0.55"/><rect x="276.0" y="198.0" width="21.0" height="21.0" rx="3" fill="#FF7A1A" fill-opacity="0.78"/><rect x="276.0" y="222.0" width="21.0" height="21.0" rx="3" fill="#FF7A1A" fill-opacity="0.55"/><rect x="300.0" y="78.0" width="21.0" height="21.0" rx="3" fill="#FF7A1A" fill-opacity="1.0"/><rect x="300.0" y="102.0" width="21.0" height="21.0" rx="3" fill="#FF7A1A" fill-opacity="0.55"/><rect x="300.0" y="126.0" width="21.0" height="21.0" rx="3" fill="#FF7A1A" fill-opacity="0.3"/><rect x="300.0" y="150.0" width="21.0" height="21.0" rx="3" fill="#FF7A1A" fill-opacity="0.55"/><rect x="300.0" y="174.0" width="21.0" height="21.0" rx="3" fill="#FF7A1A" fill-opacity="0.3"/><rect x="300.0" y="198.0" width="21.0" height="21.0" rx="3" fill="#FF7A1A" fill-opacity="0.3"/><rect x="300.0" y="222.0" width="21.0" height="21.0" rx="3" fill="#FF7A1A" fill-opacity="0.3"/><rect x="324.0" y="78.0" width="21.0" height="21.0" rx="3" fill="#FF7A1A" fill-opacity="1.0"/><rect x="324.0" y="102.0" width="21.0" height="21.0" rx="3" fill="#FF7A1A" fill-opacity="0.78"/><rect x="324.0" y="126.0" width="21.0" height="21.0" rx="3" fill="#FF7A1A" fill-opacity="1.0"/><rect x="324.0" y="150.0" width="21.0" height="21.0" rx="3" fill="#FF7A1A" fill-opacity="1.0"/><rect x="324.0" y="174.0" width="21.0" height="21.0" rx="3" fill="#FF7A1A" fill-opacity="0.55"/><rect x="324.0" y="198.0" width="21.0" height="21.0" rx="3" fill="#FF7A1A" fill-opacity="1.0"/><rect x="324.0" y="222.0" width="21.0" height="21.0" rx="3" fill="#FF7A1A" fill-opacity="0.78"/><rect x="348.0" y="78.0" width="21.0" height="21.0" rx="3" fill="#FF7A1A" fill-opacity="0.78"/><rect x="348.0" y="102.0" width="21.0" height="21.0" rx="3" fill="#FF7A1A" fill-opacity="0.3"/><rect x="348.0" y="126.0" width="21.0" height="21.0" rx="3" fill="#FF7A1A" fill-opacity="0.3"/><rect x="348.0" y="150.0" width="21.0" height="21.0" rx="3" fill="#FF7A1A" fill-opacity="0.3"/><rect x="348.0" y="174.0" width="21.0" height="21.0" rx="3" fill="#FF7A1A" fill-opacity="0.3"/><rect x="348.0" y="198.0" width="21.0" height="21.0" rx="3" fill="#FF7A1A" fill-opacity="0.55"/><rect x="348.0" y="222.0" width="21.0" height="21.0" rx="3" fill="#FF7A1A" fill-opacity="0.55"/><rect x="372.0" y="78.0" width="21.0" height="21.0" rx="3" fill="#FF7A1A" fill-opacity="0.3"/><rect x="372.0" y="102.0" width="21.0" height="21.0" rx="3" fill="#FF7A1A" fill-opacity="0.3"/><rect x="372.0" y="126.0" width="21.0" height="21.0" rx="3" fill="#FF7A1A" fill-opacity="0.3"/><rect x="372.0" y="150.0" width="21.0" height="21.0" rx="3" fill="#FF7A1A" fill-opacity="0.3"/><rect x="372.0" y="174.0" width="21.0" height="21.0" rx="3" fill="#FF7A1A" fill-opacity="0.3"/><rect x="372.0" y="198.0" width="21.0" height="21.0" rx="3" fill="#FF7A1A" fill-opacity="0.3"/><rect x="372.0" y="222.0" width="21.0" height="21.0" rx="3" fill="#FF7A1A" fill-opacity="0.3"/><rect x="396.0" y="78.0" width="21.0" height="21.0" rx="3" fill="#FF7A1A" fill-opacity="0.55"/><rect x="396.0" y="102.0" width="21.0" height="21.0" rx="3" fill="#FF7A1A" fill-opacity="0.3"/><rect x="396.0" y="126.0" width="21.0" height="21.0" rx="3" fill="#FF7A1A" fill-opacity="0.55"/><rect x="396.0" y="150.0" width="21.0" height="21.0" rx="3" fill="#FF7A1A" fill-opacity="0.3"/><rect x="396.0" y="174.0" width="21.0" height="21.0" rx="3" fill="#FF7A1A" fill-opacity="0.3"/><rect x="396.0" y="198.0" width="21.0" height="21.0" rx="3" fill="#FF7A1A" fill-opacity="0.3"/><rect x="396.0" y="222.0" width="21.0" height="21.0" rx="3" fill="#FF7A1A" fill-opacity="0.3"/><rect x="420.0" y="78.0" width="21.0" height="21.0" rx="3" fill="#222932" fill-opacity="1"/><rect x="420.0" y="102.0" width="21.0" height="21.0" rx="3" fill="#FF7A1A" fill-opacity="0.55"/><rect x="420.0" y="126.0" width="21.0" height="21.0" rx="3" fill="#FF7A1A" fill-opacity="0.3"/><rect x="420.0" y="150.0" width="21.0" height="21.0" rx="3" fill="#FF7A1A" fill-opacity="0.3"/><rect x="420.0" y="174.0" width="21.0" height="21.0" rx="3" fill="#222932" fill-opacity="1"/><rect x="420.0" y="198.0" width="21.0" height="21.0" rx="3" fill="#FF7A1A" fill-opacity="0.55"/><g transform="translate(30.0 290) scale(0.03000 -0.03000)" fill="#FF7A1A"><use href="#m7four" x="0"/><use href="#m7two" x="600"/><use href="#m7four" x="1200"/></g><g transform="translate(30.0 314) scale(0.01300 -0.01300)" fill="#9AA3AE"><use href="#m5c" x="0"/><use href="#m5o" x="600"/><use href="#m5n" x="1200"/><use href="#m5t" x="1800"/><use href="#m5r" x="2400"/><use href="#m5i" x="3000"/><use href="#m5b" x="3600"/><use href="#m5u" x="4200"/><use href="#m5t" x="4800"/><use href="#m5i" x="5400"/><use href="#m5o" x="6000"/><use href="#m5n" x="6600"/><use href="#m5s" x="7200"/></g><g transform="translate(170.0 290) scale(0.03000 -0.03000)" fill="#FF7A1A"><use href="#m7six" x="0"/><use href="#m7eight" x="600"/></g><g transform="translate(170.0 314) scale(0.01300 -0.01300)" fill="#9AA3AE"><use href="#m5a" x="0"/><use href="#m5c" x="600"/><use href="#m5t" x="1200"/><use href="#m5i" x="1800"/><use href="#m5v" x="2400"/><use href="#m5e" x="3000"/><use href="#m5d" x="4200"/><use href="#m5a" x="4800"/><use href="#m5y" x="5400"/><use href="#m5s" x="6000"/></g><g transform="translate(310.0 290) scale(0.03000 -0.03000)" fill="#FF7A1A"><use href="#m7five" x="0"/><use href="#m7two" x="600"/></g><g transform="translate(310.0 314) scale(0.01300 -0.01300)" fill="#9AA3AE"><use href="#m5d" x="0"/><use href="#m5a" x="600"/><use href="#m5y" x="1200"/><use href="#m5s" x="2400"/><use href="#m5t" x="3000"/><use href="#m5r" x="3600"/><use href="#m5e" x="4200"/><use href="#m5a" x="4800"/><use href="#m5k" x="5400"/></g><g transform="translate(450.0 290) scale(0.03000 -0.03000)" fill="#FF7A1A"><use href="#m7three" x="0"/><use href="#m7zero" x="600"/></g><g transform="translate(450.0 314) scale(0.01300 -0.01300)" fill="#9AA3AE"><use href="#m5b" x="0"/><use href="#m5u" x="600"/><use href="#m5s" x="1200"/><use href="#m5i" x="1800"/><use href="#m5e" x="2400"/><use href="#m5s" x="3000"/><use href="#m5t" x="3600"/><use href="#m5d" x="4800"/><use href="#m5a" x="5400"/><use href="#m5y" x="6000"/></g></svg>
